<svg width="405" height="132" viewBox="0 0 405 132" fill="none" xmlns="http://www.w3.org/2000/svg">
<path d="M56.3226 38.9355L40.7187 48.0006L96.8927 80.6945V89.0165L56.3226 112.199L0 79.5056V98.8247L56.3226 131.667L113.537 98.8247V72.3724L56.3226 38.9355Z" fill="#47C7F4"/>
<path d="M113.537 53.0532V33.1397L56.6198 0L0 33.1397V60.335L56.6198 93.3261L72.6695 84.261L16.9414 52.013V42.502L56.6198 19.7649L113.537 53.0532Z" fill="#006EA6"/>
<g clip-path="url(#clip0_43_446)">
<path d="M133.738 75.8029C132.259 75.1347 130.971 74.1061 129.992 72.8113V72.5048L131.973 70.4601H132.275C133.048 71.4447 134.025 72.2513 135.138 72.825C136.167 73.3996 137.322 73.7137 138.5 73.7399C139.61 73.7952 140.71 73.5095 141.652 72.9211C142.011 72.6922 142.306 72.3755 142.508 72.0009C142.711 71.6262 142.815 71.2061 142.809 70.7803C142.808 70.4182 142.735 70.0601 142.594 69.7264C142.454 69.3928 142.248 69.0902 141.99 68.8362C141.691 68.5788 141.355 68.3676 140.993 68.2095C140.619 68.0305 140.232 67.8777 139.836 67.7521L138.404 67.2672L136.876 66.7687C136.192 66.5257 135.52 66.2478 134.864 65.9361C134.238 65.6233 133.641 65.256 133.08 64.8383C132.437 64.3669 131.919 63.7453 131.571 63.0277C131.223 62.3101 131.057 61.5182 131.085 60.7214C131.069 59.888 131.249 59.0624 131.609 58.3109C131.97 57.5594 132.502 56.9029 133.162 56.3941C134.534 55.2871 136.364 54.7245 138.564 54.7245C141.83 54.7245 144.511 56.0098 146.075 57.9859V58.2787L144.127 60.3188H143.871C143.246 59.5269 142.45 58.8879 141.541 58.4504C140.633 58.0128 139.637 57.7882 138.628 57.7938C137.659 57.7541 136.701 58.0128 135.884 58.5349C135.551 58.742 135.276 59.0312 135.087 59.3749C134.898 59.7185 134.801 60.105 134.804 60.4972C134.801 61.054 135.014 61.5903 135.399 61.993C135.753 62.379 136.181 62.69 136.657 62.9079C137.114 63.1138 137.75 63.3653 138.601 63.6627C138.729 63.7084 139.132 63.8411 139.809 64.0469C140.486 64.2527 140.902 64.4174 141.094 64.5043C141.286 64.5912 141.657 64.7422 142.238 64.9618C142.657 65.1192 143.06 65.3185 143.441 65.5565C143.651 65.7166 143.971 65.9407 144.406 66.2151C145.261 66.7778 145.499 67.2901 145.966 68.0448C146.412 68.8664 146.618 69.7969 146.56 70.73C146.587 71.6033 146.401 72.47 146.018 73.2551C145.634 74.0402 145.065 74.72 144.36 75.2357C142.896 76.3609 141.012 76.9236 138.729 76.9236C137.003 76.9255 135.298 76.5427 133.738 75.8029Z" fill="#179AD7"/>
<path d="M161.486 76.8961C159.975 76.9354 158.471 76.6724 157.062 76.1226C155.654 75.5727 154.37 74.7471 153.284 73.6941C152.239 72.6551 151.409 71.4196 150.843 70.0588C150.277 68.6979 149.986 67.2385 149.986 65.7645C149.986 64.2906 150.277 62.8312 150.843 61.4703C151.409 60.1095 152.239 58.874 153.284 57.835C155.53 55.7984 158.453 54.6702 161.484 54.6702C164.515 54.6702 167.438 55.7984 169.683 57.835C171.786 59.9383 172.967 62.7906 172.967 65.7645C172.967 68.7385 171.786 71.5908 169.683 73.6941C168.599 74.7467 167.315 75.5722 165.908 76.122C164.5 76.6719 162.997 76.935 161.486 76.8961ZM161.486 73.5981C162.515 73.6246 163.539 73.4417 164.495 73.0603C165.452 72.6789 166.32 72.1071 167.049 71.3795C168.485 69.8701 169.286 67.8663 169.286 65.7829C169.286 63.6994 168.485 61.6956 167.049 60.1862C165.545 58.77 163.558 57.9812 161.493 57.9812C159.428 57.9812 157.441 58.77 155.938 60.1862C154.82 61.277 154.054 62.6777 153.74 64.2075C153.426 65.7374 153.577 67.3264 154.174 68.7696C154.771 70.2128 155.787 71.4441 157.09 72.3047C158.393 73.1653 159.924 73.6158 161.486 73.5981Z" fill="#179AD7"/>
<path d="M191.896 58.1781H181.577V64.3671H189.714V67.3724H181.577V76.4936H177.917V55.0904H191.873L191.896 58.1781Z" fill="#179AD7"/>
<path d="M204.411 58.1781V76.4753H200.752V58.1781H193.836V55.0904H211.31V58.1781H204.411Z" fill="#179AD7"/>
<path d="M229.328 58.1781H219.017V64.3671H227.155V67.3724H219.017V76.4936H215.358V55.0904H229.319L229.328 58.1781Z" fill="#179AD7"/>
<path d="M243.257 76.8961C241.745 76.9354 240.241 76.6724 238.833 76.1226C237.424 75.5727 236.14 74.7471 235.055 73.6941C234.009 72.6551 233.18 71.4196 232.614 70.0588C232.047 68.6979 231.756 67.2385 231.756 65.7646C231.756 64.2906 232.047 62.8312 232.614 61.4703C233.18 60.1095 234.009 58.874 235.055 57.835C237.301 55.7981 240.224 54.6698 243.257 54.6698C246.289 54.6698 249.212 55.7981 251.458 57.835C253.559 59.9395 254.738 62.7913 254.738 65.7646C254.738 68.7378 253.559 71.5896 251.458 73.6941C250.373 74.7468 249.089 75.5724 247.68 76.1222C246.272 76.672 244.768 76.9351 243.257 76.8961ZM243.257 73.5981C244.286 73.6246 245.31 73.4417 246.266 73.0603C247.222 72.6789 248.091 72.1071 248.819 71.3795C250.255 69.8701 251.056 67.8663 251.056 65.7829C251.056 63.6994 250.255 61.6956 248.819 60.1862C247.316 58.77 245.329 57.9812 243.263 57.9812C241.198 57.9812 239.211 58.77 237.708 60.1862C236.59 61.277 235.825 62.6777 235.51 64.2075C235.196 65.7374 235.347 67.3264 235.944 68.7696C236.541 70.2128 237.557 71.4441 238.86 72.3047C240.164 73.1653 241.695 73.6158 243.257 73.5981Z" fill="#179AD7"/>
<path d="M276.306 76.2054L276.146 76.4936H272.56L267.985 67.8893H263.37V76.4936H259.71V55.0904H268.315C273.41 55.0904 276.178 57.501 276.178 61.5676C276.178 64.5135 274.522 66.5994 271.604 67.4731L276.306 76.2054ZM263.361 58.1781V65.2042H268.635C269.143 65.2328 269.652 65.1606 270.133 64.9918C270.613 64.823 271.055 64.561 271.434 64.2207C272.097 63.5379 272.467 62.6241 272.467 61.6729C272.467 60.7216 272.097 59.8077 271.434 59.1249C270.656 58.4646 269.654 58.126 268.635 58.1781H263.361Z" fill="#179AD7"/>
<path d="M304.292 76.4936H300.916L299.42 62.8255L293.226 76.4936H291.36L285.267 62.7707L283.79 76.4936H280.249L282.856 55.0904H284.832L292.279 71.3933L299.726 55.0904H301.671L304.292 76.4936Z" fill="#179AD7"/>
<path d="M318.98 55.0904L328.851 76.2054L328.691 76.4936H325.031L323.119 72.1526H312.681L310.737 76.4936H307.215L307.036 76.2054L316.99 55.0904H318.98ZM313.898 69.3851H321.935L317.946 60.2823L313.898 69.3851Z" fill="#179AD7"/>
<path d="M338.663 58.1781V76.4753H335.004V58.1781H328.092V55.0904H345.57V58.1781H338.663Z" fill="#179AD7"/>
<path d="M349.618 55.0904H353.278V76.4936H349.618V55.0904Z" fill="#179AD7"/>
<path d="M369.741 76.8961C368.229 76.9351 366.725 76.672 365.317 76.1222C363.909 75.5724 362.624 74.7468 361.539 73.6941C360.494 72.6551 359.664 71.4196 359.098 70.0588C358.532 68.6979 358.24 67.2385 358.24 65.7646C358.24 64.2906 358.532 62.8312 359.098 61.4703C359.664 60.1095 360.494 58.874 361.539 57.835C363.785 55.7981 366.709 54.6698 369.741 54.6698C372.773 54.6698 375.697 55.7981 377.943 57.835C380.043 59.9395 381.222 62.7913 381.222 65.7646C381.222 68.7378 380.043 71.5896 377.943 73.6941C376.857 74.7468 375.573 75.5724 374.165 76.1222C372.756 76.672 371.252 76.9351 369.741 76.8961ZM369.741 73.5981C370.77 73.6246 371.794 73.4417 372.75 73.0603C373.706 72.6789 374.575 72.1071 375.303 71.3795C376.739 69.8701 377.54 67.8663 377.54 65.7829C377.54 63.6994 376.739 61.6956 375.303 60.1862C373.8 58.77 371.813 57.9812 369.748 57.9812C367.683 57.9812 365.695 58.77 364.192 60.1862C363.074 61.277 362.309 62.6777 361.995 64.2075C361.68 65.7374 361.831 67.3264 362.428 68.7696C363.025 70.2128 364.041 71.4441 365.344 72.3047C366.648 73.1653 368.179 73.6158 369.741 73.5981Z" fill="#179AD7"/>
<path d="M400.718 55.0904H404.304V76.7178H402.278L389.781 61.6637V76.4936H386.195V55.0904H388.239L400.718 70.1079V55.0904Z" fill="#179AD7"/>
</g>
<defs>
<clipPath id="clip0_43_446">
<rect width="274.308" height="22.2083" fill="white" transform="translate(129.992 54.6879)"/>
</clipPath>
</defs>
</svg>
